<svg width="192.756" height="192.756" xmlns="http://www.w3.org/2000/svg">

 <g>
  <title>Layer 1</title>
  <g transform="rotate(8.36851 97.4649 99.8716)" stroke="null" id="svg_1" clip-rule="evenodd" fill-rule="evenodd">
   <path stroke="null" id="svg_2" d="m8.97379,15.463l176.98229,0l0,168.81716l-176.98229,0l0,-168.81716z" fill-opacity="0" fill="#fff"/>
   <path stroke="null" id="svg_3" d="m48.21719,78.0631c-9.07241,10.16287 -17.77113,22.76574 -17.85836,32.18593c-0.03397,3.54439 1.1523,6.63862 3.9977,8.98228c4.09503,3.37536 8.6069,4.56558 13.09674,4.57259c6.56122,0.00876 13.07654,-2.5162 18.17788,-4.46312c8.59129,-3.27727 103.56011,-42.61592 103.56011,-42.61592c0.91633,-0.4379 0.74463,-0.98353 -0.40216,-0.71116c-0.46276,0.11035 -103.38841,26.71651 -103.38841,26.71651a22.74393,21.69463 0 0 1 -5.99012,0.818c-7.91001,0.04467 -14.94868,-4.14345 -14.89176,-12.96896c0.02204,-3.45331 1.13026,-7.61777 3.69838,-12.51617z"/>
  </g>
 </g>
</svg>